<?xml version="1.0" encoding="UTF-8"?>
<svg id="Layer_2" data-name="Layer 2" xmlns="http://www.w3.org/2000/svg" viewBox="0 0 51.26 27.1">
  <defs>
    <style>
      .cls-1 {
        fill: #9bc6b9;
      }
    </style>
  </defs>
  <g id="Layer_1-2" data-name="Layer 1">
    <path class="cls-1" d="M47.42,11.42c-3.11,1.22-2.3.61-2.3.61,0,0,1.62-3.98.27-4.39-1.35-.41-3.98.54-5.06,2.36,0,0-5.13-.61-5.06,4.52l.2,1.89s-7.16.68-7.63-2.3c0,0-1.01-3.11.84-2.7,1.86.41,2.26,1.15,2.26,1.15,0,0,4.05-2.43.27-7.43-1.42-1.76-2.53-.47-2.53-.47,0,0-.9-4.01-3.04-4.66-2.14.65-3.04,4.66-3.04,4.66,0,0-1.11-1.28-2.53.47-3.78,5,.27,7.43.27,7.43,0,0,.41-.74,2.26-1.15,1.86-.41.84,2.7.84,2.7-.47,2.97-7.63,2.3-7.63,2.3l.2-1.89c.07-5.13-5.06-4.52-5.06-4.52-1.08-1.82-3.71-2.77-5.06-2.36-1.35.41.27,4.39.27,4.39,0,0,.81.61-2.3-.61-3.11-1.22-3.85-.47-3.85-.47l7.63,9.99,2.01,5.1c.43,1.08,1.75,1.39,2.66.67,1.84-1.45,5.64-3.22,13.33-3.44,7.68.22,11.49,1.99,13.33,3.44.91.72,2.23.41,2.66-.67l2.01-5.1,7.63-9.99s-.74-.74-3.85.47Z"/>
  </g>
</svg>